<svg width="18" height="18" viewBox="0 0 18 18" fill="none" xmlns="http://www.w3.org/2000/svg">
<path d="M13.0581 7.36308H11.8611V5.97708C11.8611 4.42008 10.5471 3.11508 8.99913 3.11508C7.45113 3.11508 6.13714 4.42908 6.13714 5.97708V7.36308H4.94914C4.50814 7.36308 4.15714 7.75008 4.20214 8.19108L4.75114 13.8701C4.80514 14.4461 5.29114 14.8871 5.87614 14.8871H12.1131C12.6891 14.8871 13.1751 14.4461 13.2381 13.8701L13.8231 8.19108C13.8681 7.75008 13.5171 7.36308 13.0761 7.36308H13.0581ZM7.26213 5.97708C7.26213 5.03208 8.05413 4.24008 8.99913 4.24008C9.94413 4.24008 10.7361 5.03208 10.7361 5.97708V7.36308H7.26213V5.97708Z" fill="#D4D4D4"/>
</svg>
