<svg width="18" height="18" viewBox="0 0 18 18" fill="none" xmlns="http://www.w3.org/2000/svg">
<path fill-rule="evenodd" clip-rule="evenodd" d="M3.375 5.25C3.375 4.21447 4.21447 3.375 5.25 3.375H6.49999C7.53551 3.375 8.37501 4.21447 8.37501 5.25V6.49999C8.37501 7.53551 7.53551 8.37501 6.49999 8.37501H5.25C4.21447 8.37501 3.375 7.53551 3.375 6.49999V5.25ZM9.62499 5.25C9.62499 4.21447 10.4645 3.375 11.5 3.375H12.75C13.7856 3.375 14.625 4.21447 14.625 5.25V6.49999C14.625 7.53551 13.7856 8.37501 12.75 8.37501H11.5C10.4645 8.37501 9.62499 7.53551 9.62499 6.49999V5.25ZM3.375 11.5C3.375 10.4645 4.21447 9.62499 5.25 9.62499H6.49999C7.53551 9.62499 8.37501 10.4645 8.37501 11.5V12.75C8.37501 13.7856 7.53551 14.625 6.49999 14.625H5.25C4.21447 14.625 3.375 13.7856 3.375 12.75V11.5ZM9.62499 11.5C9.62499 10.4645 10.4645 9.62499 11.5 9.62499H12.75C13.7856 9.62499 14.625 10.4645 14.625 11.5V12.75C14.625 13.7856 13.7856 14.625 12.75 14.625H11.5C10.4645 14.625 9.62499 13.7856 9.62499 12.75V11.5Z" fill="#D4D4D4"/>
</svg>
