<svg width="18" height="18" viewBox="0 0 18 18" fill="none" xmlns="http://www.w3.org/2000/svg">
<path fill-rule="evenodd" clip-rule="evenodd" d="M13.1211 6.49908L10.4751 3.48408C10.2501 3.25908 9.96208 3.11508 9.66508 3.11508H5.68708C5.08408 3.11508 4.58008 3.61008 4.58008 4.22208V13.7891C4.58008 14.3921 5.07508 14.8961 5.68708 14.8961H12.3111C12.9141 14.8961 13.4181 14.4011 13.4181 13.7891V7.23708C13.4181 6.94008 13.2741 6.72408 13.1211 6.49908ZM10.8351 12.4481H7.15408C6.84808 12.4481 6.60508 12.2051 6.60508 11.8991C6.60508 11.5931 6.84808 11.3501 7.15408 11.3501H10.8351C11.1411 11.3501 11.3841 11.5931 11.3841 11.8991C11.3841 12.2051 11.1411 12.4481 10.8351 12.4481ZM10.8351 9.85608H7.15408C6.84808 9.85608 6.60508 9.61308 6.60508 9.30708C6.60508 9.00108 6.84808 8.75808 7.15408 8.75808H10.8351C11.1411 8.75808 11.3841 9.00108 11.3841 9.30708C11.3841 9.61308 11.1411 9.85608 10.8351 9.85608Z" fill="#D4D4D4"/>
</svg>
